# xmcd
#
# Track frame offsets: 
#        150
#        10834
#        23250
#        34285
#        46278
#        55409
#        66644
#        79238
#        88970
#        100501
#        113291
#        122263
#        134485
#        145395
#        158174
#        169405
#        181337
#        190499
#        202402
#        214857
#        224744
#        236429
#        249431
#        258325
#        270657
#        272524
#
# Disc length: 3696 seconds
#
# Revision: 0
# Processed by: cddbd v1.5.2PL0 Copyright (c) Steve Scherf et al.
# Submitted via: ExactAudioCopy v0.95b3
#
DISCID=810e6e1a
DTITLE=The Monkees - The Monkees Complete 01 of 28 
DYEAR=1900
DGENRE=
TTITLE0=(Theme From) The Monkees
TTITLE1=Saturday's Child
TTITLE2=I Wanna Be Free
TTITLE3=Tomorrow's Gonna Be Another Day
TTITLE4=Papa Gene's Blues
TTITLE5=Take A Giant Step
TTITLE6=Last Train To Clarksville
TTITLE7=This Just Doesn't Seem To Be My Day
TTITLE8=Let's Dance On
TTITLE9=I'll Be True To You
TTITLE10=Sweet Young Thing
TTITLE11=Gonna Buy Me A Dog
TTITLE12=Monkees Theme (mono)
TTITLE13=Saturday's Child (mono)
TTITLE14=I Wanna Be Free (mono)
TTITLE15=Tomorrow's Gonna Be Another Day (mono)
TTITLE16=Papa Gene's Blues (mono)
TTITLE17=Take A Giant Step (mono)
TTITLE18=Last Train To Clarksville (mono)
TTITLE19=This Just Doesn't Seem To Be My Day (mono)
TTITLE20=Let's Dance On (mono)
TTITLE21=I'll Be True To You (mono)
TTITLE22=Sweet Young Thing (mono)
TTITLE23=Gonna Buy Me A Dog (mono)
TTITLE24=1966 TV Promo #1
TTITLE25=1966 TV Promo #2
EXTD=
EXTT0=
EXTT1=
EXTT2=
EXTT3=
EXTT4=
EXTT5=
EXTT6=
EXTT7=
EXTT8=
EXTT9=
EXTT10=
EXTT11=
EXTT12=
EXTT13=
EXTT14=
EXTT15=
EXTT16=
EXTT17=
EXTT18=
EXTT19=
EXTT20=
EXTT21=
EXTT22=
EXTT23=
EXTT24=
EXTT25=
PLAYORDER=
